<?xml version="1.0" encoding="UTF-8" standalone="no"?>
<!-- The icon can be used freely in both personal and commercial projects with no attribution required, but always appreciated. 
You may NOT sub-license, resell, rent, redistribute or otherwise transfer the icon without express written permission from iconmonstr.com -->

<svg
   xmlns:dc="http://purl.org/dc/elements/1.1/"
   xmlns:cc="http://creativecommons.org/ns#"
   xmlns:rdf="http://www.w3.org/1999/02/22-rdf-syntax-ns#"
   xmlns:svg="http://www.w3.org/2000/svg"
   xmlns="http://www.w3.org/2000/svg"
   xmlns:sodipodi="http://sodipodi.sourceforge.net/DTD/sodipodi-0.dtd"
   xmlns:inkscape="http://www.inkscape.org/namespaces/inkscape"
   version="1.1"
   x="0px"
   y="0px"
   width="912px"
   height="513px"
   viewBox="0 0 912 513"
   enable-background="new 0 0 912 513"
   xml:space="preserve"
   id="svg3761"
   sodipodi:docname="vidplaceholder.svg"
   inkscape:version="0.92.2 (5c3e80d, 2017-08-06)"><metadata
     id="metadata3767"><rdf:RDF><cc:Work
         rdf:about=""><dc:format>image/svg+xml</dc:format><dc:type
           rdf:resource="http://purl.org/dc/dcmitype/StillImage" /></cc:Work></rdf:RDF></metadata><defs
     id="defs3765" /><sodipodi:namedview
     pagecolor="#ffffff"
     bordercolor="#666666"
     borderopacity="1"
     objecttolerance="10"
     gridtolerance="10"
     guidetolerance="10"
     inkscape:pageopacity="0"
     inkscape:pageshadow="2"
     inkscape:window-width="1366"
     inkscape:window-height="745"
     id="namedview3763"
     showgrid="false"
     inkscape:zoom="0.70710678"
     inkscape:cx="539.2688"
     inkscape:cy="268.46391"
     inkscape:window-x="-8"
     inkscape:window-y="-8"
     inkscape:window-maximized="1"
     inkscape:current-layer="svg3761" /><rect
     width="912"
     height="513"
     id="rect3758"
     x="0"
     y="0"
     style="fill:#0062ff;stroke-width:1.3359375" /><path
     id="video-5-icon"
     d="m 443.391,166.834 215.748,-42.766 -0.145,-0.727 -14.436,-72.841 -363.4,72.035 C 263.07,126.12 250,141.985 250,160.424 c 0,16.312 0,242.407 0,242.407 0,32.351 26.318,58.669 58.668,58.669 H 603.332 C 635.682,461.5 662,435.182 662,402.831 V 167.575 166.834 Z M 622,402.831 c 0,10.294 -8.374,18.669 -18.668,18.669 H 308.668 C 298.374,421.5 290,413.125 290,402.831 V 261.765 h 332 z m -82.472,-215.997 -34.931,34.931 h -52.426 l 34.931,-34.931 z m 55.697,-106.166 41.139,27.529 -51.396,10.214 -41.17,-27.55 z m -101.244,20.068 41.199,27.568 -51.394,10.213 -41.229,-27.588 z m -101.356,20.091 41.257,27.608 -51.395,10.213 -41.287,-27.627 z m -8.855,66.007 h 52.426 l -34.931,34.931 h -52.426 z m 171.615,34.931 34.931,-34.931 h 52.426 l -34.931,34.931 z M 432.923,393.31 V 284.553 l 88.693,54.38 z"
     inkscape:connector-curvature="0"
     style="fill:#ffffff" /></svg>