<?xml version="1.0" encoding="UTF-8" standalone="no"?>
<svg
   xmlns:dc="http://purl.org/dc/elements/1.1/"
   xmlns:cc="http://creativecommons.org/ns#"
   xmlns:rdf="http://www.w3.org/1999/02/22-rdf-syntax-ns#"
   xmlns:svg="http://www.w3.org/2000/svg"
   xmlns="http://www.w3.org/2000/svg"
   xmlns:sodipodi="http://sodipodi.sourceforge.net/DTD/sodipodi-0.dtd"
   xmlns:inkscape="http://www.inkscape.org/namespaces/inkscape"
   viewBox="0 0 512 288"
   height="288"
   width="512"
   version="1.1"
   id="svg212"
   sodipodi:docname="ytplaceholder.svg"
   inkscape:version="0.92.2 (5c3e80d, 2017-08-06)">
  <metadata
     id="metadata218">
    <rdf:RDF>
      <cc:Work
         rdf:about="">
        <dc:format>image/svg+xml</dc:format>
        <dc:type
           rdf:resource="http://purl.org/dc/dcmitype/StillImage" />
      </cc:Work>
    </rdf:RDF>
  </metadata>
  <defs
     id="defs216" />
  <sodipodi:namedview
     pagecolor="#ffffff"
     bordercolor="#666666"
     borderopacity="1"
     objecttolerance="10"
     gridtolerance="10"
     guidetolerance="10"
     inkscape:pageopacity="0"
     inkscape:pageshadow="2"
     inkscape:window-width="1366"
     inkscape:window-height="745"
     id="namedview214"
     showgrid="false"
     inkscape:zoom="1.3671875"
     inkscape:cx="357.24654"
     inkscape:cy="201.66761"
     inkscape:window-x="-8"
     inkscape:window-y="-8"
     inkscape:window-maximized="1"
     inkscape:current-layer="svg212" />
  <rect
     width="512"
     height="288"
     id="rect172"
     x="0"
     y="1.4210855e-014"
     style="fill:#cd201f;stroke-width:1.18086064" />
  <g
     transform="matrix(0.25000197,0,0,0.24922321,130.99978,92.000002)"
     id="g210">
    <g
       id="g176">
      <path
         d="m 994.04,90.026 c 0,0 -5.82,-40.886 -23.693,-58.893 C 947.687,7.507 922.277,7.387 910.627,6 827.227,0 702.127,0 702.127,0 h -0.25999 c 0,0 -125.11,0 -208.51,6 -11.653,1.3867 -37.046,1.5067 -59.72,25.133 -17.867,18.007 -23.68,58.893 -23.68,58.893 0,0 -5.9666,48.006 -5.9666,96.019 v 45.013 c 0,48.013 5.9666,96.026 5.9666,96.026 0,0 5.8133,40.88 23.68,58.893 22.673,23.633 52.46,22.88 65.72,25.353 47.68,4.56 202.63,5.9666 202.63,5.9666 0,0 125.24,-0.18667 208.64,-6.1866 11.647,-1.3867 37.053,-1.5 59.713,-25.133 17.873,-18.013 23.693,-58.893 23.693,-58.893 0,0 5.96,-48.013 5.96,-96.026 v -45.013 c 0,-48.013 -5.96,-96.019 -5.96,-96.019"
         id="path174"
         inkscape:connector-curvature="0"
         style="fill:#ffffff" />
    </g>
    <g
       id="g190">
      <g
         transform="matrix(6.6666,0,0,-6.6666,373.24,337.7)"
         id="g180">
        <path
           d="m 0,0 h -5.688 v 3.293 c -2.157,-2.472 -3.985,-3.72 -5.978,-3.72 -1.748,0 -2.963,0.824 -3.57,2.315 -0.369,0.906 -0.631,2.321 -0.631,4.399 v 23.951 h 5.687 V 7.784 5.688 c 0.133,-0.839 0.491,-1.147 1.213,-1.147 1.089,0 2.074,0.946 3.279,2.645 V 30.238 H 0 Z"
           id="path178"
           inkscape:connector-curvature="0"
           style="fill:#ffffff" />
      </g>
      <g
         transform="matrix(6.6666,0,0,-6.6666,201.59,277.82)"
         id="g184">
        <path
           d="m 0,0 c 0.299,-2.994 -0.63,-4.479 -2.396,-4.479 -1.766,0 -2.694,1.485 -2.394,4.479 v 11.976 c -0.3,2.994 0.628,4.397 2.394,4.397 1.767,0 2.698,-1.403 2.399,-4.397 z m 5.688,11.377 c 0,3.231 -0.649,5.658 -1.796,7.185 -1.516,2.069 -3.892,2.916 -6.288,2.916 -2.71,0 -4.774,-0.847 -6.287,-2.916 -1.166,-1.527 -1.791,-3.98 -1.791,-7.211 L -10.479,0.599 c 0,-3.213 0.556,-5.433 1.721,-6.946 1.514,-2.062 3.968,-3.154 6.362,-3.154 2.396,0 4.892,1.092 6.408,3.154 1.147,1.513 1.676,3.733 1.676,6.946 z"
           id="path182"
           inkscape:connector-curvature="0"
           style="fill:#ffffff" />
      </g>
      <g
         transform="matrix(6.6666,0,0,-6.6666,89.82,227.92)"
         id="g188">
        <path
           d="M 0,0 V -16.467 H -5.988 V 0 c 0,0 -6.205,20.187 -7.485,23.95 h 6.287 L -2.984,8.18 1.197,23.95 h 6.287 z"
           id="path186"
           inkscape:connector-curvature="0"
           style="fill:#ffffff" />
      </g>
    </g>
    <g
       style="fill:#ffffff"
       id="g208">
      <g
         transform="matrix(6.6666,0,0,-6.6666,878.2,191.92)"
         id="g194">
        <path
           d="m 0,0 c 0,2.799 0.767,3.562 2.577,3.562 1.797,0 2.512,-0.833 2.512,-3.599 V -3.305 L 0,-3.311 Z m 10.788,-7.796 -10e-4,6.12 c 0,3.197 -0.63,5.537 -1.764,7.05 C 7.505,7.421 5.347,8.505 2.628,8.505 -0.14,8.505 -2.298,7.421 -3.865,5.374 -5.017,3.861 -5.688,1.39 -5.688,-1.809 v -10.478 c 0,-3.179 0.738,-5.404 1.889,-6.901 1.568,-2.044 3.726,-3.065 6.561,-3.065 2.832,0 5.056,1.07 6.555,3.243 0.66,0.959 1.085,2.046 1.268,3.247 0.049,0.543 0.192,1.78 0.192,3.526 v 0.848 H 5.089 c 0,-2.174 0.011,-3.467 -0.04,-3.762 -0.31,-1.45 -1.087,-2.175 -2.421,-2.175 -1.861,0 -2.648,1.391 -2.628,4.153 v 5.377 z"
           id="path192"
           inkscape:connector-curvature="0"
           style="fill:#cd201f" />
      </g>
      <g
         transform="matrix(6.6666,0,0,-6.6666,778.4,279.82)"
         id="g198">
        <path
           d="m 0,0 c 0,-2.994 -0.706,-4.142 -2.269,-4.142 -0.892,0 -1.92,0.459 -2.827,1.366 l 0.006,18.157 c 0.906,0.894 1.929,1.365 2.821,1.365 1.563,0 2.269,-0.879 2.269,-3.873 z m 0.631,21.736 c -1.994,0 -3.976,-1.226 -5.727,-3.381 l 0.006,13.081 h -5.389 V -8.683 h 5.389 l 0.008,3.015 c 1.811,-2.241 3.786,-3.4 5.713,-3.4 2.158,0 3.735,1.155 4.459,3.38 0.361,1.268 0.598,3.22 0.598,5.987 v 11.975 c 0,2.834 -0.363,4.772 -0.725,5.975 -0.723,2.24 -2.174,3.487 -4.332,3.487"
           id="path196"
           inkscape:connector-curvature="0"
           style="fill:#cd201f" />
      </g>
      <g
         transform="matrix(6.6666,0,0,-6.6666,678.61,337.7)"
         id="g202">
        <path
           d="m 0,0 h -5.687 v 3.293 c -2.158,-2.472 -3.985,-3.72 -5.978,-3.72 -1.748,0 -2.963,0.824 -3.57,2.315 -0.37,0.906 -0.632,2.321 -0.632,4.399 v 23.651 h 5.688 V 7.784 5.688 c 0.133,-0.839 0.49,-1.147 1.213,-1.147 1.089,0 2.074,0.946 3.279,2.645 V 29.938 H 0 Z"
           id="path200"
           inkscape:connector-curvature="0"
           style="fill:#cd201f" />
      </g>
      <g
         transform="matrix(6.6666,0,0,-6.6666,534.9,337.7)"
         id="g206">
        <path
           d="m 0,0 h -5.987 v 34.43 h -6.287 v 5.681 L 6.587,40.118 V 34.43 H 0 Z"
           id="path204"
           inkscape:connector-curvature="0"
           style="fill:#cd201f" />
      </g>
    </g>
  </g>
</svg>
